<svg width="169" height="187" viewBox="0 0 169 187" fill="none" xmlns="http://www.w3.org/2000/svg">
<circle cx="91.7389" cy="90.6159" r="77.2623" fill="#4FC8FF" fill-opacity="0.8"/>
<ellipse cx="68.1015" cy="75" rx="6.55856" ry="13" fill="white"/>
<ellipse cx="116.117" cy="75" rx="6.55856" ry="13" fill="white"/>
<path d="M115.5 122.841C115.5 126.983 104.479 139 91.5 139C78.5213 139 67 126.983 67 122.841C67 118.699 78.5213 126.5 91.5 126.5C104.479 126.5 115.5 118.699 115.5 122.841Z" fill="white"/>
<path d="M90.308 117.092C90.308 142.969 100.845 166.384 117.864 183.281C110.031 185.416 101.786 186.556 93.2769 186.556C41.7609 186.556 0 144.795 0 93.2794C0 41.7634 41.7609 0 93.2769 0C118.916 0 142.14 10.3458 159 27.088C119.414 37.8751 90.308 74.0856 90.308 117.092Z" fill="#53FFF7" fill-opacity="0.4"/>
</svg>
