<svg width="187" height="187" viewBox="0 0 187 187" fill="none" xmlns="http://www.w3.org/2000/svg">
<circle cx="93.7389" cy="93.6159" r="77.2623" fill="#4FC8FF" fill-opacity="0.8"/>
<ellipse cx="70.1015" cy="78" rx="6.55856" ry="13" fill="white"/>
<ellipse cx="118.117" cy="78" rx="6.55856" ry="13" fill="white"/>
<path d="M120 126C120 130.142 106.479 143.5 93.5 143.5C80.5213 143.5 66 130.142 66 126C66 121.858 80.5213 129.5 93.5 129.5C106.479 129.5 120 121.858 120 126Z" fill="white"/>
<path d="M93.5 187C145.139 187 187 145.139 187 93.5C187 41.8614 145.139 0 93.5 0C41.8614 0 0 41.8614 0 93.5C0 145.139 41.8614 187 93.5 187Z" fill="#53FFF7" fill-opacity="0.4"/>
</svg>
