<svg width="169" height="168" viewBox="0 0 169 168" fill="none" xmlns="http://www.w3.org/2000/svg">
<circle cx="91.7389" cy="90.6159" r="77.2623" fill="#4FC8FF" fill-opacity="0.8"/>
<ellipse cx="68.1015" cy="75" rx="6.55856" ry="13" fill="white"/>
<ellipse cx="116.117" cy="75" rx="6.55856" ry="13" fill="white"/>
<path d="M115 122.841C115 126.983 104.479 137 91.5 137C78.5213 137 68 126.983 68 122.841C68 118.699 78.5213 125 91.5 125C104.479 125 115 118.699 115 122.841Z" fill="white"/>
<path d="M159.581 27.187C127.682 35.8802 102.562 61.02 93.9008 92.9314C88.1283 91.8167 82.1663 91.2335 76.069 91.2335C47.6443 91.2335 22.1772 103.901 5.00729 123.9C1.76178 114.402 0 104.216 0 93.6179C0 41.9136 41.9136 0 93.6178 0C119.351 0 142.66 10.3837 159.581 27.187Z" fill="#53FFF7" fill-opacity="0.4"/>
</svg>
