<svg width="155" height="155" viewBox="0 0 155 155" fill="none" xmlns="http://www.w3.org/2000/svg">
<circle cx="77.2623" cy="77.2623" r="75.7623" stroke="white" stroke-width="3"/>
<ellipse cx="53.625" cy="61.6465" rx="6.55856" ry="13" fill="white"/>
<ellipse cx="101.641" cy="61.6465" rx="6.55856" ry="13" fill="white"/>
<path d="M100.523 109.487C100.523 113.63 90.0021 119.987 77.0234 119.987C64.0447 119.987 53.5234 113.63 53.5234 109.487C53.5234 105.345 64.0447 109.487 77.0234 109.487C90.0021 109.487 100.523 105.345 100.523 109.487Z" fill="white"/>
<path d="M89 32.7827C91.283 35.3977 94.0816 37.5128 97.2203 38.9957C100.359 40.4785 103.77 41.2971 107.24 41.4" stroke="white" stroke-width="3" stroke-linecap="round" stroke-linejoin="round"/>
<path d="M65.7 32C63.2264 34.8198 60.2035 37.1052 56.8162 38.7163C53.4288 40.3274 49.7484 41.2304 46 41.37" stroke="white" stroke-width="3" stroke-linecap="round" stroke-linejoin="round"/>
</svg>
