<svg width="169" height="166" viewBox="0 0 169 166" fill="none" xmlns="http://www.w3.org/2000/svg">
<circle cx="91.7389" cy="88.6159" r="77.2623" fill="#4FC8FF" fill-opacity="0.8"/>
<ellipse cx="68.1015" cy="73" rx="6.55856" ry="13" fill="white"/>
<ellipse cx="116.117" cy="73" rx="6.55856" ry="13" fill="white"/>
<path d="M67.6109 25.1609C67.6109 50.5571 77.6594 73.6058 94 90.5481C88.3468 89.4883 82.5153 88.9336 76.5525 88.9336C47.9447 88.9336 22.3157 101.684 5.03912 121.813C1.77298 112.255 0 102.003 0 91.3356C0 47.3108 30.1976 10.3382 71.0082 0C68.7945 8.00811 67.6109 16.4471 67.6109 25.1609Z" fill="#53FFF7" fill-opacity="0.4"/>
<path d="M115 120.841C115 124.983 104.479 133 91.5 133C78.5213 133 68 124.983 68 120.841C68 116.699 78.5213 122 91.5 122C104.479 122 115 116.699 115 120.841Z" fill="white"/>
</svg>
